<svg width="462" height="305" viewBox="0 0 462 305" fill="none" xmlns="http://www.w3.org/2000/svg">
<path fill-rule="evenodd" clip-rule="evenodd" d="M210.395 82.4344C186.629 87.1328 167.085 103.577 158.059 125.467H181.618C183.643 121.968 186.053 118.695 188.834 115.746V187.967C186.264 185.537 183.953 182.859 181.958 179.975H158C167 201.937 186.577 218.442 210.395 223.151L210.411 209.898C210.395 209.893 210.346 122.394 210.346 200.428V97.6499C210.346 132.255 210.33 91.3791 210.346 91.3743L210.395 82.4344Z" fill="#18A4E0"/>
<path fill-rule="evenodd" clip-rule="evenodd" d="M241.71 82.225C237.411 81.4206 232.977 81 228.444 81C225.655 81 222.903 81.1592 220.198 81.4691V198.355L220.28 198.059L244.957 222.742L245.234 222.465C276.737 214.906 300.151 186.548 300.151 152.721C300.151 133.114 292.285 115.345 279.537 102.398L265.481 116.457C273.831 125.573 279.39 138.661 278.94 155.948C276.839 175.278 265.774 190.125 250.278 197.512L241.71 188.943V102.088L241.711 102.088L241.71 82.225Z" fill="#18A4E0"/>
<path d="M683.672 305C681.251 305 678.827 304.908 676.397 304.712C656.259 303.089 634.63 295.59 610.273 281.786C606.817 279.828 603.293 277.79 599.885 275.82C568.038 257.411 535.107 238.374 497.575 247.257C478.234 251.834 459.068 259.857 440.534 267.615C422.254 275.267 403.352 283.179 384.168 287.854C373.79 290.382 364.172 291.785 354.765 292.142C344.181 292.543 334.139 291.62 324.067 289.321C318.638 288.082 313.478 286.195 309.54 284.009C305.832 281.951 303.15 279.638 301.524 277.104C291.327 282.671 280.585 287.093 269.509 290.278C256.594 293.993 243.2 296.035 229.699 296.349C216.315 296.659 202.829 295.273 189.616 292.227C176.338 289.165 163.342 284.428 150.989 278.148C132.361 268.677 116.158 255.316 101.456 237.301C89.6299 222.811 78.8454 205.445 67.5163 182.649C66.1762 179.952 64.8581 177.17 63.5836 174.479C57.5513 161.744 51.3136 148.575 40.3808 139.476C25.0707 126.734 14 127 0.497785 128C-0.262652 127.24 2.12538 127.54 0.500396 123.686C3.5004 124 2.26959 122.459 13.0854 123.686C24.3417 124.962 34.7058 129.311 43.0572 136.262C54.6992 145.951 61.1378 159.544 67.3644 172.689C68.6306 175.362 69.94 178.126 71.2627 180.788C88.406 215.283 111.51 253.383 152.885 274.419C200.306 298.529 254.808 297.977 299.899 273.224C298.907 268.563 301.091 263.7 306.399 258.76C337.274 230.024 352.67 185.077 347.582 138.525C345.448 118.999 332.839 53.8932 260.191 35.9048C206.807 22.6864 141.291 41.3806 115.264 112.942C102.797 147.218 110.293 189.919 134.363 221.729C157.926 252.87 192.336 268.446 231.257 265.591C264.365 263.162 292.23 250.355 314.077 227.528C329.938 210.956 337.001 194.617 338.256 191.51C338.852 190.033 340.211 189.925 340.979 190.212C341.64 190.46 342.741 191.36 342.176 192.993C342.085 193.255 341.845 193.95 341.475 195.115C340.389 198.54 337.202 207.74 331.087 219.162C324.05 232.306 315.58 243.906 305.912 253.64C293.14 266.5 278.477 275.837 262.331 281.391C250.449 285.478 237.71 287.526 224.255 287.526C215.508 287.526 206.459 286.661 197.141 284.929C173.027 280.446 152.004 271.79 134.657 259.2C119.395 248.124 106.931 233.997 97.6111 217.212C89.5569 202.706 83.9811 186.525 81.0382 169.118C78.5223 154.235 78.0611 138.914 79.7048 124.811C81.2688 111.392 85.929 96.8215 93.1816 82.675C100.924 67.5736 111.499 53.3128 123.765 41.4346C137.587 28.0495 153.348 17.6953 170.609 10.6596C189.953 2.7756 210.861 -0.764758 232.751 0.137548C248.988 0.806748 264.696 3.94502 279.436 9.46523C289.159 13.1061 298.579 17.8652 307.435 23.6104C316.127 29.2499 324.305 35.857 331.742 43.2484C339.133 50.5948 345.804 58.7277 351.569 67.4212C357.375 76.1767 362.272 85.5158 366.124 95.1795C374.634 116.525 377.658 140.755 374.872 165.251C372.139 189.275 363.991 212.35 351.309 231.983C345.238 241.382 337.856 249.994 329.368 257.581C322.69 263.55 315.269 269.002 307.309 273.788C306.604 274.212 305.895 274.631 305.184 275.043C306.452 276.908 308.614 278.711 311.57 280.352C315.174 282.352 319.943 284.089 324.998 285.244C365.5 294.489 402.824 278.866 438.918 263.757C457.608 255.933 476.935 247.843 496.611 243.187C506.039 240.956 515.376 240.303 525.155 241.192C533.815 241.98 542.599 243.965 552.01 247.261C569.338 253.331 585.931 262.923 601.978 272.199C605.379 274.165 608.895 276.198 612.336 278.148C636.151 291.644 657.215 298.97 676.733 300.543C699.787 302.4 722.883 294.457 745.219 286.775C762.032 280.992 779.416 275.013 796.618 273.295C805.953 272.362 814.49 272.721 822.716 274.394C831.956 276.272 840.557 279.741 849.011 285.001C849.992 285.611 850.292 286.901 849.682 287.881C849.071 288.862 847.782 289.162 846.801 288.552C813.375 267.757 780.93 278.916 746.581 290.73C726.148 297.757 705.089 305 683.672 305ZM226.014 4.1805C178.481 4.1805 145.905 25.8174 126.676 44.4389C103.459 66.9225 87.053 97.9049 83.8603 125.295C78.1689 174.126 95.7837 261.831 197.906 280.817C239.982 288.639 275.322 278.504 302.944 250.693C312.556 241.015 319.853 230.485 325.221 221.097C322.806 224.144 320.104 227.28 317.1 230.419C307.167 240.797 295.773 249.308 283.235 255.715C267.683 263.661 250.298 268.387 231.563 269.762C228.434 269.992 225.33 270.106 222.258 270.107C204.805 270.107 188.303 266.408 173.086 259.07C164.816 255.082 156.984 250.02 149.811 244.024C142.909 238.255 136.589 231.603 131.026 224.252C118.892 208.215 110.595 189.246 107.031 169.396C103.41 149.221 104.897 129.205 111.332 111.512C117.372 94.9065 125.914 80.2852 136.722 68.0544C146.98 56.4455 159.149 47.1176 172.891 40.3299C186.151 33.7806 200.567 29.7371 215.74 28.3114C230.741 26.9021 246.035 28.0905 261.197 31.8447C275.688 35.4328 288.84 41.1258 300.288 48.7651C310.765 55.7565 319.923 64.4441 327.508 74.5866C334.405 83.8088 340.013 94.2352 344.175 105.577C347.968 115.911 350.513 126.843 351.74 138.071C354.159 160.203 351.942 182.912 345.327 203.742C341.813 214.807 337.083 225.246 331.267 234.769C325.107 244.855 317.7 253.956 309.25 261.82C305.703 265.122 303.897 268.192 303.86 270.973C304.292 270.719 304.724 270.462 305.154 270.203C312.889 265.553 320.097 260.257 326.58 254.463C334.789 247.125 341.927 238.798 347.795 229.713C373.136 190.486 378.805 138.286 362.239 96.7277C347.043 58.6088 315.541 27.4515 277.969 13.3817C263.645 8.01738 248.373 4.96736 232.579 4.31642C230.36 4.22511 228.17 4.1805 226.014 4.1805Z" fill="#18A4E0"/>
</svg>
